<svg class="w-full h-auto" width="200" height="36" xmlns="http://www.w3.org/2000/svg" viewBox="0 0 200 36" fill="none">
  <g id=" backbone.one-logo" clip-path="url(#mhybpfpbqx-clip0_7328_2828)">
    <g id="mhybpfpbqx-logo-neu">
      <g id="mhybpfpbqx-Group">
        <path id="mhybpfpbqx-Vector" d="M38.6902 22.6735V24.4891H35.9922V9.98364H38.6902V16.1138C39.478 14.9815 41.2898 14.0639 43.5545 14.0639C47.0797 14.0639 49.7777 15.9576 49.7777 19.257V19.4132C49.7777 22.693 47.1781 24.6844 43.5348 24.6844C41.0928 24.6844 39.4386 23.8449 38.6902 22.6735ZM47.0009 19.4718V19.3156C47.0009 17.09 45.1891 15.9381 42.8652 15.9381C40.5414 15.9381 38.6114 17.0704 38.6114 19.2961V19.4522C38.6114 21.6778 40.4035 22.7906 42.8849 22.7906C45.3663 22.7906 47.0009 21.5997 47.0009 19.4718Z" fill="#08230B"></path>
        <path id="mhybpfpbqx-Vector_2" d="M50.8223 21.541C50.8223 19.2568 53.0476 18.3588 56.6909 18.3588H60.157V17.9878C60.157 16.4846 59.2117 15.8793 57.1439 15.8793C55.3518 15.8793 54.2293 16.3869 53.9929 17.4217H51.3934C51.6888 15.0399 54.2686 14.0637 57.2818 14.0637C60.4524 14.0637 62.855 15.0008 62.855 17.9488V24.4889H60.1964V23.1028C59.3496 24.157 57.9513 24.6842 55.6866 24.6842C53.0083 24.6842 50.8223 23.7471 50.8223 21.541ZM60.157 20.7796V19.9987H56.75C54.5247 19.9987 53.5203 20.3696 53.5203 21.4824C53.5203 22.4195 54.4656 22.9466 56.3168 22.9466C58.4043 22.9466 60.157 22.2243 60.157 20.7796Z" fill="#08230B"></path>
        <path id="mhybpfpbqx-Vector_3" d="M64.6465 19.4911V19.3349C64.6465 16.1136 67.6596 14.0637 71.4605 14.0637C74.769 14.0637 77.3291 15.1765 77.7033 17.8902H75.1038C74.7493 16.6603 73.5677 15.977 71.4998 15.977C69.0972 15.977 67.4233 17.2069 67.4233 19.3349V19.4911C67.4233 21.6776 69.0382 22.8295 71.5392 22.8295C73.7646 22.8295 75.0447 22.1071 75.3401 20.682H77.8215C77.4867 22.9857 75.4976 24.6842 71.4408 24.6842C67.3839 24.6842 64.6465 22.7709 64.6465 19.4911Z" fill="#08230B"></path>
        <path id="mhybpfpbqx-Vector_4" d="M79.6533 9.98364H82.3513V18.7885L87.8655 14.2787H91.0559L85.1084 18.9446L91.5089 24.4891H88.1216L82.3513 19.4522V24.4891H79.6533V9.98364Z" fill="#08230B"></path>
        <path id="mhybpfpbqx-Vector_5" d="M95.447 22.6735V24.4891H92.749V9.98364H95.447V16.1138C96.2348 14.9815 98.0466 14.0639 100.311 14.0639C103.837 14.0639 106.535 15.9576 106.535 19.257V19.4132C106.535 22.693 103.935 24.6844 100.292 24.6844C97.8497 24.6844 96.1954 23.8449 95.447 22.6735ZM103.758 19.4718V19.3156C103.758 17.09 101.946 15.9381 99.6221 15.9381C97.2982 15.9381 95.3683 17.0704 95.3683 19.2961V19.4522C95.3683 21.6778 97.1604 22.7906 99.6418 22.7906C102.123 22.7906 103.758 21.5997 103.758 19.4718Z" fill="#08230B"></path>
        <path id="mhybpfpbqx-Vector_6" d="M107.559 19.4911V19.3349C107.559 16.1722 110.65 14.0637 114.609 14.0637C118.567 14.0637 121.639 16.1527 121.639 19.2763V19.4325C121.639 22.6147 118.548 24.6842 114.57 24.6842C110.591 24.6842 107.559 22.5952 107.559 19.4911ZM118.863 19.4716V19.3154C118.863 17.2264 117.11 15.9379 114.609 15.9379C112.108 15.9379 110.335 17.2264 110.335 19.2958V19.452C110.335 21.5215 112.049 22.8295 114.609 22.8295C117.169 22.8295 118.863 21.5019 118.863 19.4716Z" fill="#08230B"></path>
        <path id="mhybpfpbqx-Vector_7" d="M123.569 14.2785H126.267V16.2112C126.917 15.0008 128.591 14.0637 130.954 14.0637C133.79 14.0637 135.76 15.3132 135.76 18.4173V24.4889H133.062V18.6516C133.062 16.836 132.018 16.0551 129.95 16.0551C128 16.0551 126.267 16.9531 126.267 18.8663V24.4889H123.569V14.2785Z" fill="#08230B"></path>
        <path id="mhybpfpbqx-Vector_8" d="M144.445 24.6842C140.329 24.6842 137.552 22.7124 137.552 19.4911V19.3349C137.552 16.1722 140.368 14.0637 144.267 14.0637C147.773 14.0637 150.687 15.567 150.687 19.2178V19.9206H140.289C140.466 21.9705 142.022 22.9076 144.504 22.9076C146.493 22.9076 147.674 22.3414 148.009 21.3653H150.609C150.116 23.5128 147.851 24.6842 144.445 24.6842ZM140.388 18.3002H148.009C147.871 16.6017 146.512 15.8403 144.267 15.8403C142.377 15.8403 140.801 16.4846 140.388 18.3002Z" fill="#08230B"></path>
        <path id="mhybpfpbqx-Vector_9" d="M152.244 23.1424C152.244 22.2834 152.953 21.6196 153.957 21.6196C154.962 21.6196 155.691 22.2834 155.691 23.1424C155.691 24.0014 154.962 24.6262 153.957 24.6262C152.953 24.6262 152.244 23.9819 152.244 23.1424Z" fill="#08230B"></path>
        <path id="mhybpfpbqx-Vector_10" d="M156.871 19.4911V19.3349C156.871 16.1722 159.963 14.0637 163.921 14.0637C167.88 14.0637 170.952 16.1527 170.952 19.2763V19.4325C170.952 22.6147 167.86 24.6842 163.882 24.6842C159.904 24.6842 156.871 22.5952 156.871 19.4911ZM168.175 19.4716V19.3154C168.175 17.2264 166.422 15.9379 163.921 15.9379C161.42 15.9379 159.648 17.2264 159.648 19.2958V19.452C159.648 21.5215 161.361 22.8295 163.921 22.8295C166.482 22.8295 168.175 21.5019 168.175 19.4716Z" fill="#08230B"></path>
        <path id="mhybpfpbqx-Vector_11" d="M172.882 14.2785H175.58V16.2112C176.23 15.0008 177.904 14.0637 180.267 14.0637C183.103 14.0637 185.072 15.3132 185.072 18.4173V24.4889H182.374V18.6516C182.374 16.836 181.33 16.0551 179.263 16.0551C177.313 16.0551 175.58 16.9531 175.58 18.8663V24.4889H172.882V14.2785Z" fill="#08230B"></path>
        <path id="mhybpfpbqx-Vector_12" d="M193.757 24.6842C189.641 24.6842 186.864 22.7124 186.864 19.4911V19.3349C186.864 16.1722 189.68 14.0637 193.58 14.0637C197.085 14.0637 200 15.567 200 19.2178V19.9206H189.602C189.779 21.9705 191.335 22.9076 193.816 22.9076C195.805 22.9076 196.987 22.3414 197.322 21.3653H199.921C199.429 23.5128 197.164 24.6842 193.757 24.6842ZM189.7 18.3002H197.322C197.184 16.6017 195.825 15.8403 193.58 15.8403C191.689 15.8403 190.114 16.4846 189.7 18.3002Z" fill="#08230B"></path>
      </g>
      <path id="mhybpfpbqx-Vector_13" d="M14.8726 3.1272C6.66036 3.1272 0 9.72983 0 17.8709C0 26.0119 6.66036 32.6145 14.8726 32.6145C23.0848 32.6145 29.7452 26.0119 29.7452 17.8709C29.7452 9.72983 23.0887 3.1272 14.8726 3.1272ZM16.4835 25.6371H13.2616C12.919 25.6371 12.6433 25.3637 12.6433 25.024C12.6433 24.6844 12.919 24.411 13.2616 24.411H16.4835C16.8262 24.411 17.1019 24.6844 17.1019 25.024C17.1019 25.3637 16.8262 25.6371 16.4835 25.6371ZM18.4686 23.6731H11.2805C10.5282 23.6731 9.91768 23.0679 9.91768 22.3221C9.91768 21.5763 10.5282 20.9711 11.2805 20.9711H18.4686C19.2209 20.9711 19.8314 21.5763 19.8314 22.3221C19.8314 23.0679 19.2209 23.6731 18.4686 23.6731ZM12.6905 19.6162C12.6905 19.2765 12.9662 19.0032 13.3089 19.0032H16.5308C16.8734 19.0032 17.1492 19.2765 17.1492 19.6162C17.1492 19.9559 16.8734 20.2292 16.5308 20.2292H13.3089C12.9662 20.2292 12.6905 19.9559 12.6905 19.6162ZM18.4686 18.2145H11.2805C10.5282 18.2145 9.91768 17.6093 9.91768 16.8635C9.91768 16.1177 10.5282 15.5125 11.2805 15.5125H18.4686C19.2209 15.5125 19.8314 16.1177 19.8314 16.8635C19.8314 17.6093 19.2209 18.2145 18.4686 18.2145ZM12.6433 14.1615C12.6433 13.8218 12.919 13.5485 13.2616 13.5485H16.4835C16.8262 13.5485 17.1019 13.8218 17.1019 14.1615C17.1019 14.5012 16.8262 14.7745 16.4835 14.7745H13.2616C12.919 14.7745 12.6433 14.5012 12.6433 14.1615ZM18.4686 12.8105H11.2805C10.5282 12.8105 9.91768 12.2053 9.91768 11.4596C9.91768 10.7138 10.5282 10.1086 11.2805 10.1086H18.4686C19.2209 10.1086 19.8314 10.7138 19.8314 11.4596C19.8314 12.2053 19.2209 12.8105 18.4686 12.8105Z" fill="#08230B"></path>
    </g>
  </g>
  <defs>
    <clipPath id="mhybpfpbqx-clip0_7328_2828">
      <rect width="200" height="35.9551" fill="white" transform="translate(0 0.0224609)"></rect>
    </clipPath>
  </defs>
</svg>