<?xml version="1.0" encoding="UTF-8"?>
<svg xmlns="http://www.w3.org/2000/svg" width="1080" height="1080" viewBox="0 0 1080 1080" fill="none">
  <path d="M456.34 920.84C456.24 921.24 456.14 921.64 456.06 922.05C456.04 922.16 456.04 922.27 456.02 922.37L455.91 922.92H455.95C454.77 932.27 461.1 940.98 470.47 942.64C479.84 944.29 488.77 938.27 490.86 929.09H490.9L490.98 928.54C491 928.44 491.03 928.34 491.05 928.23C491.12 927.86 491.15 927.48 491.19 927.11L524.64 700.01C525.5 694.15 521.49 688.74 515.65 687.72C515.58 687.71 515.51 687.7 515.44 687.68C509.61 686.65 504.01 690.35 502.81 696.14L456.33 920.84H456.34Z" fill="white" fill-opacity="0.1"></path>
  <path d="M616.24 196.82C617.88 187.55 611.69 178.71 602.42 177.08C593.15 175.45 584.31 181.64 582.68 190.91L554.99 380.45C554.09 386.6 558.37 392.23 564.51 393.18C564.62 393.2 564.72 393.21 564.83 393.23C570.79 394.17 576.46 390.34 577.67 384.43L616.25 196.83L616.24 196.82Z" fill="white" fill-opacity="0.1"></path>
  <path d="M490.59 681.04C486.61 679.6 482.2 681.51 480.63 685.44L388.93 916.02C388.79 916.34 388.64 916.66 388.52 917C388.49 917.09 388.47 917.18 388.44 917.27L388.26 917.71H388.29C385.92 925.4 389.94 933.66 397.58 936.44C405.21 939.22 413.61 935.48 416.72 928.07H416.76L416.91 927.62C416.94 927.54 416.98 927.46 417.02 927.37C417.13 927.07 417.21 926.76 417.3 926.45L495.57 690.89C496.91 686.85 494.74 682.54 490.74 681.1C490.69 681.08 490.64 681.07 490.59 681.05V681.04Z" fill="white" fill-opacity="0.1"></path>
  <path d="M592.86 400.49C597.09 402.04 601.79 400.02 603.45 395.84L689.49 178.75C692.35 170.88 688.3 162.18 680.43 159.31C672.56 156.45 663.86 160.5 660.99 168.37L587.62 390.08C586.21 394.34 588.49 398.89 592.71 400.43C592.76 400.45 592.81 400.47 592.86 400.49Z" fill="white" fill-opacity="0.1"></path>
  <path d="M468.07 670.67C464.71 668.77 460.45 669.8 458.42 673.09L364.83 824.69C364.67 824.93 364.5 825.17 364.36 825.42C364.32 825.49 364.29 825.56 364.26 825.62L364.05 825.95L364.08 825.97C361.06 831.85 363.14 839.12 368.93 842.46C374.72 845.8 382.05 843.97 385.64 838.42L385.67 838.44L385.86 838.09C385.9 838.03 385.94 837.97 385.98 837.9C386.11 837.67 386.22 837.43 386.34 837.2L471.05 680.39C472.91 676.94 471.62 672.67 468.21 670.74C468.17 670.72 468.13 670.69 468.09 670.67H468.07Z" fill="white" fill-opacity="0.1"></path>
  <path d="M617.47 412.19C621.05 414.31 625.66 413.24 627.84 409.7L713.65 270.33C717.1 264.36 715.05 256.73 709.08 253.29C703.11 249.85 695.48 251.89 692.04 257.86L614.41 401.97C612.47 405.57 613.77 410.02 617.29 412.1C617.35 412.13 617.41 412.17 617.46 412.2L617.47 412.19Z" fill="white" fill-opacity="0.1"></path>
  <path d="M639.62 428.22C643.13 431.29 648.42 431.04 651.51 427.55L827 230.04C832.79 223.14 831.89 212.85 824.99 207.05C818.09 201.26 807.8 202.16 802 209.06L638.2 416.38C635.4 419.93 635.94 425.01 639.35 427.98C639.44 428.06 639.53 428.14 639.62 428.21V428.22Z" fill="white" fill-opacity="0.1"></path>
  <path d="M447.53 656.67C444.19 653.96 439.33 654.29 436.47 657.5L251.79 864.86C251.53 865.13 251.26 865.4 251.02 865.69C250.95 865.77 250.9 865.85 250.84 865.93L250.5 866.31L250.53 866.34C245.31 873.23 246.34 883.06 253.03 888.68C259.72 894.3 269.59 893.6 275.47 887.26L275.5 887.29L275.82 886.88C275.88 886.81 275.96 886.74 276.02 886.67C276.24 886.4 276.44 886.12 276.64 885.84L449.09 668.09C451.84 664.62 451.2 659.63 447.76 656.85C447.68 656.79 447.6 656.72 447.52 656.66L447.53 656.67Z" fill="white" fill-opacity="0.1"></path>
  <path d="M253.04 787.83C257.75 793.45 266.01 794.31 271.78 789.93L271.8 789.96L272.13 789.67C272.19 789.62 272.26 789.58 272.33 789.52C272.55 789.33 272.76 789.13 272.97 788.93L429.06 650.24C432.15 647.5 432.49 642.75 429.75 639.66C429.72 639.62 429.68 639.59 429.65 639.55C426.97 636.53 422.43 636.06 419.27 638.57L255.49 767.97C255.23 768.16 254.98 768.34 254.73 768.55C254.66 768.6 254.61 768.67 254.55 768.72L254.21 768.99L254.23 769.02C248.91 773.95 248.33 782.23 253.04 787.85V787.83Z" fill="white" fill-opacity="0.1"></path>
  <path d="M824.97 307.91C820.11 302.12 811.47 301.36 805.68 306.22L659.12 436.75C655.94 439.58 655.6 444.39 658.25 447.72C658.28 447.76 658.31 447.8 658.35 447.84C661.06 451.24 666.04 451.74 669.44 449.04L823.28 327.2C829.07 322.34 829.83 313.7 824.97 307.91Z" fill="white" fill-opacity="0.1"></path>
  <path d="M335.35 665.45C337.66 669.45 342.69 670.89 346.75 668.8V668.82L347 668.68C347.04 668.65 347.09 668.64 347.14 668.61C347.3 668.52 347.45 668.41 347.6 668.31L412.67 628.25C415.66 626.41 416.57 622.49 414.71 619.51C414.69 619.47 414.67 619.44 414.64 619.4C412.88 616.57 409.22 615.59 406.28 617.17L339.05 653.39C338.87 653.48 338.69 653.56 338.51 653.66C338.46 653.69 338.42 653.72 338.38 653.75L338.14 653.88V653.9C334.31 656.38 333.04 661.45 335.35 665.45Z" fill="white" fill-opacity="0.1"></path>
  <path d="M803.3 414.65C811.24 410.07 813.96 399.92 809.38 391.98C804.8 384.04 794.65 381.32 786.71 385.91L677.6 453.27C671.81 456.85 669.91 464.3 673.12 470.3C673.16 470.37 673.2 470.45 673.24 470.52C676.54 476.71 684.33 478.94 690.5 475.6L803.3 414.66V414.65Z" fill="white" fill-opacity="0.1"></path>
  <path d="M403.29 597.24C401.27 592.32 395.77 589.81 390.72 591.48L64.6699 699.39C64.2199 699.52 63.77 699.64 63.32 699.81C63.2 699.85 63.09 699.91 62.98 699.95L62.38 700.15L62.4 700.2C52.52 704.36 47.52 715.57 51.23 725.76C54.94 735.95 65.97 741.33 76.22 738.16L76.2399 738.21L76.8399 737.97C76.9499 737.93 77.07 737.91 77.19 737.86C77.6 737.71 77.98 737.53 78.37 737.36L397.76 610.77C403.04 608.68 405.56 602.68 403.39 597.43C403.36 597.37 403.34 597.31 403.31 597.25L403.29 597.24Z" fill="white" fill-opacity="0.1"></path>
  <path d="M683.64 495.12C685.1 499.67 689.97 502.16 694.5 500.65L950.55 415.58C959.09 412.47 963.49 403.04 960.38 394.5C957.27 385.96 947.84 381.56 939.3 384.67L688.58 484.38C684.39 486.04 682.21 490.66 683.59 494.95C683.61 495 683.62 495.06 683.64 495.11V495.12Z" fill="white" fill-opacity="0.1"></path>
  <path d="M216 617.53V617.56L216.4 617.48C216.48 617.47 216.55 617.47 216.62 617.45C216.88 617.4 217.14 617.33 217.4 617.27L390.02 581.77C394.01 580.95 396.61 577.04 395.73 573.06C395.72 573.01 395.71 572.97 395.7 572.92C394.86 569.13 391.29 566.6 387.45 567.16L213.13 592.63C212.84 592.66 212.55 592.69 212.26 592.74C212.18 592.75 212.11 592.78 212.04 592.79L211.65 592.85V592.88C205.18 594.35 200.92 600.66 202.09 607.28C203.26 613.9 209.41 618.37 216.01 617.54L216 617.53Z" fill="white" fill-opacity="0.1"></path>
  <path d="M875.92 488.46C874.72 481.64 868.21 477.08 861.38 478.28L695.41 512.61C691.49 513.42 688.92 517.13 689.44 521.1C689.44 521.15 689.45 521.2 689.46 521.25C690 525.42 693.91 528.3 698.07 527.69L865.73 502.99C872.55 501.79 877.11 495.28 875.91 488.45L875.92 488.46Z" fill="white" fill-opacity="0.1"></path>
  <path d="M690.56 547.61C690.56 547.61 690.56 547.7 690.56 547.75C690.37 551.66 693.49 554.95 697.4 555.06L815.56 558.4C821.37 558.4 826.09 553.69 826.09 547.87C826.09 542.05 821.38 537.34 815.56 537.34L697.39 540.82C693.68 540.93 690.73 543.9 690.56 547.6V547.61Z" fill="white" fill-opacity="0.1"></path>
  <path d="M393.98 517.53C395.01 510.88 390.76 504.57 384.17 503.2L31.05 430.15C30.52 430.02 30 429.88 29.46 429.79C29.32 429.76 29.18 429.76 29.03 429.74L28.31 429.59V429.65C16 428.1 4.53005 436.43 2.35005 448.77C0.170047 461.11 8.11005 472.87 20.19 475.62V475.68L20.92 475.79C21.06 475.82 21.19 475.86 21.33 475.88C21.82 475.97 22.31 476.01 22.8 476.06L379.68 528.63C386.57 529.64 392.86 524.84 393.91 517.95C393.93 517.81 393.95 517.67 393.97 517.53H393.98Z" fill="white" fill-opacity="0.1"></path>
  <path d="M909.88 627.93C917.73 629.31 925.22 624.07 926.6 616.22C927.98 608.37 922.74 600.88 914.89 599.5L695.99 567.52C691.84 566.91 687.97 569.64 687.05 573.74C687.04 573.79 687.03 573.84 687.02 573.89C686.04 578.21 688.87 582.48 693.21 583.37L909.89 627.93H909.88Z" fill="white" fill-opacity="0.1"></path>
  <path d="M978.68 686.65L692.76 592.03C687.3 590.22 681.42 592.97 679.2 598.28C679.17 598.35 679.14 598.41 679.12 598.48C676.76 604.09 679.55 610.55 685.21 612.79L965.18 723.76C975.42 727.49 986.75 722.21 990.48 711.96C994.21 701.72 988.93 690.39 978.68 686.66V686.65Z" fill="white" fill-opacity="0.1"></path>
  <path d="M176.58 425.8V425.83L177 425.98C177.08 426.01 177.16 426.05 177.24 426.08C177.53 426.19 177.82 426.26 178.12 426.35L388.73 496.32C392.92 497.71 397.48 495.43 398.78 491.21C398.8 491.16 398.81 491.11 398.83 491.06C400.06 487.08 398.08 482.82 394.21 481.28L188.07 399.3C187.76 399.16 187.46 399.02 187.14 398.91C187.06 398.88 186.97 398.86 186.89 398.83L186.47 398.66V398.69C179.14 396.43 171.26 400.27 168.62 407.54C165.97 414.81 169.54 422.82 176.6 425.79L176.58 425.8Z" fill="white" fill-opacity="0.1"></path>
  <path d="M837.22 720.05C840.71 714.01 838.64 706.29 832.6 702.8L676.81 618.88C673.36 617.02 669.1 618.17 666.98 621.46C666.95 621.5 666.93 621.54 666.9 621.58C664.65 625.06 665.76 629.73 669.29 631.9L819.97 724.67C826.01 728.16 833.73 726.09 837.22 720.05Z" fill="white" fill-opacity="0.1"></path>
  <path d="M244.88 392.61L244.86 392.64L245.21 392.83C245.28 392.87 245.33 392.91 245.4 392.95C245.63 393.09 245.87 393.2 246.11 393.32L398.41 475.6C402.09 477.59 406.72 476.21 408.63 472.5C408.65 472.46 408.68 472.41 408.7 472.37C410.51 468.85 409.37 464.54 406.01 462.46L258.78 371.57C258.54 371.41 258.3 371.24 258.04 371.09C257.97 371.05 257.9 371.02 257.83 370.98L257.49 370.77L257.47 370.8C251.52 367.74 244.16 369.85 240.78 375.71C237.4 381.57 239.25 388.99 244.88 392.62V392.61Z" fill="white" fill-opacity="0.1"></path>
  <path d="M271.36 340.09L271.68 340.34C271.74 340.39 271.79 340.45 271.85 340.5C272.06 340.68 272.28 340.83 272.5 340.99L412.01 451.48C415.32 454.1 420.17 453.56 422.74 450.2C422.77 450.16 422.8 450.12 422.83 450.08C425.27 446.89 424.9 442.38 421.9 439.71L289.06 321.4C288.85 321.19 288.63 320.98 288.4 320.79C288.34 320.74 288.27 320.7 288.21 320.65L287.91 320.38L287.89 320.4C282.46 316.28 274.7 317.09 270.27 322.37C265.84 327.65 266.39 335.43 271.39 340.06L271.37 340.08L271.36 340.09Z" fill="white" fill-opacity="0.1"></path>
  <path d="M911.31 832.98L667.91 640.67C662.78 636.62 655.44 637.27 651 642.07C650.94 642.13 650.89 642.19 650.83 642.25C646.12 647.32 646.6 655.31 651.77 659.91L883.66 865.94C892.76 873.58 906.33 872.39 913.96 863.29C921.6 854.19 920.41 840.62 911.31 832.99V832.98Z" fill="white" fill-opacity="0.1"></path>
  <path d="M373.1 366.78C373.1 366.78 373.16 366.87 373.2 366.91C373.33 367.06 373.47 367.2 373.6 367.34L429.27 430C431.76 432.81 436.09 433.08 438.86 430.55C438.89 430.52 438.93 430.49 438.96 430.46C441.6 428.05 441.98 424.02 439.76 421.21L387.83 355.48C387.7 355.31 387.58 355.13 387.44 354.96C387.4 354.92 387.36 354.88 387.32 354.84L387.14 354.61H387.12C383.78 351.02 378.16 350.62 374.35 353.82C370.54 357.02 369.95 362.62 372.93 366.54L372.91 366.56L373.11 366.78H373.1Z" fill="white" fill-opacity="0.1"></path>
  <path d="M688.74 740.78C692.04 744.71 697.9 745.22 701.83 741.93C705.76 738.63 706.27 732.77 702.98 728.84L641.44 659.74C639.15 657.17 635.28 656.81 632.56 658.91C632.53 658.94 632.49 658.96 632.46 658.99C629.56 661.22 629.03 665.38 631.3 668.25L688.74 740.78Z" fill="white" fill-opacity="0.1"></path>
  <path d="M611.23 672.65C611.23 672.65 611.15 672.69 611.1 672.72C607.55 674.6 606.26 679.05 608.17 682.59L690.83 835.6C694.25 841.52 701.82 843.55 707.74 840.13C713.66 836.71 715.69 829.14 712.27 823.22L620.91 675.23C618.88 671.94 614.65 670.85 611.23 672.66V672.65Z" fill="white" fill-opacity="0.1"></path>
  <path d="M313.06 195.83L313.38 196.35C313.43 196.45 313.48 196.55 313.53 196.65C313.73 197 313.96 197.33 314.19 197.66L445.43 410.82C448.81 416.31 456.04 418.06 461.48 414.61C461.54 414.57 461.61 414.53 461.67 414.49C466.87 411.2 468.71 404.49 465.79 399.08L347.12 178.79C346.93 178.39 346.74 178 346.51 177.61C346.45 177.51 346.38 177.42 346.32 177.32L346.04 176.79L346 176.81C340.53 168.33 329.33 165.54 320.5 170.64C311.67 175.74 308.49 186.84 313.1 195.81L313.06 195.83Z" fill="white" fill-opacity="0.1"></path>
  <path d="M413.27 253.16L413.46 253.64C413.49 253.73 413.51 253.82 413.55 253.92C413.67 254.24 413.81 254.55 413.95 254.86L469.89 395.99C472.25 401.94 479.01 404.92 484.94 402.49C485.01 402.46 485.08 402.43 485.15 402.4C490.84 400.08 493.81 393.82 491.88 387.99L444.21 243.95C444.11 243.59 444.01 243.23 443.88 242.87C443.85 242.78 443.8 242.69 443.77 242.6L443.61 242.12H443.57C440.26 234.26 431.32 230.27 423.2 233.23C415.08 236.19 410.79 244.98 413.32 253.15H413.28L413.27 253.16Z" fill="white" fill-opacity="0.1"></path>
  <path d="M588.15 682.48C588.15 682.48 588.07 682.51 588.03 682.52C584.59 683.65 582.76 687.4 583.9 690.84L616.62 789.31C618.44 794.32 623.98 796.9 628.99 795.08C634 793.26 636.58 787.72 634.76 782.71L596.41 686.28C595.11 683.02 591.5 681.38 588.16 682.48H588.15Z" fill="white" fill-opacity="0.1"></path>
  <path d="M442.63 114.19L442.76 114.84C442.78 114.96 442.78 115.08 442.81 115.21C442.89 115.65 443 116.07 443.1 116.49L498.22 384.49C499.61 391.26 506.2 395.75 512.97 394.38C513.05 394.36 513.13 394.35 513.21 394.33C519.87 392.99 524.37 386.78 523.39 380.06L483.85 109.43C483.8 108.95 483.75 108.47 483.67 107.99C483.65 107.86 483.61 107.74 483.58 107.62L483.49 106.98H483.44C481 96.27 470.58 89.24 459.63 91.16C448.69 93.09 441.3 103.27 442.67 114.17H442.62L442.63 114.19Z" fill="white" fill-opacity="0.1"></path>
  <path d="M563.83 688.26C563.83 688.26 563.74 688.27 563.69 688.28C559.74 688.87 557.04 692.61 557.62 696.57L584.36 878.13C585.58 885.03 592.15 889.63 599.05 888.42C605.95 887.2 610.55 880.63 609.34 873.73L572.16 694C571.37 690.16 567.7 687.68 563.83 688.26Z" fill="white" fill-opacity="0.1"></path>
  <path d="M384.1 558.5C389.83 557.35 394.14 552.29 394.14 546.22C394.14 540.15 389.6 534.86 383.66 533.88C383.61 533.87 383.55 533.87 383.49 533.85C383.23 533.81 382.98 533.77 382.72 533.75C382.57 533.74 382.44 533.7 382.29 533.69L147.4 526.77C146.95 526.74 146.51 526.7 146.05 526.7C145.93 526.7 145.81 526.72 145.7 526.72L145.09 526.7V526.75C134.85 527.25 126.69 535.69 126.69 546.06C126.69 556.43 134.85 564.86 145.09 565.37V565.42L145.71 565.4C145.83 565.4 145.94 565.42 146.06 565.42C146.47 565.42 146.88 565.38 147.29 565.36L381.43 558.73C381.5 558.73 381.56 558.73 381.63 558.73C381.86 558.73 382.09 558.71 382.33 558.7H382.65C382.65 558.7 382.71 558.68 382.74 558.68C383.02 558.66 383.29 558.61 383.57 558.57C383.75 558.54 383.94 558.53 384.11 558.49L384.1 558.5Z" fill="white" fill-opacity="0.1"></path>
  <path d="M547.25 695.64C547.25 695.31 547.18 694.99 547.1 694.68C546.5 691.46 543.69 689.01 540.29 689.01C536.89 689.01 534.11 691.42 533.49 694.61C533.41 694.91 533.37 695.22 533.36 695.54L529.12 845.34C529.12 851.56 534.16 856.61 540.39 856.61C546.62 856.61 551.66 851.57 551.66 845.34L547.25 695.63V695.64Z" fill="white" fill-opacity="0.1"></path>
  <path d="M550.27 248.06H550.24C549.95 242.1 545.03 237.35 539 237.35C532.97 237.35 528.05 242.1 527.76 248.06H527.73V248.42C527.73 248.49 527.73 248.55 527.73 248.62C527.73 248.86 527.75 249.1 527.77 249.33L531.57 383.61C531.57 383.61 531.57 383.65 531.57 383.68C531.62 387.71 534.89 390.96 538.93 390.96C542.97 390.96 546.3 387.66 546.3 383.59C546.3 383.52 546.28 383.46 546.28 383.39L550.23 249.4C550.25 249.14 550.27 248.88 550.27 248.62C550.27 248.55 550.27 248.48 550.26 248.41V248.06H550.27Z" fill="white" fill-opacity="0.1"></path>
</svg>
